<svg xmlns="http://www.w3.org/2000/svg" xmlns:xlink="http://www.w3.org/1999/xlink" width="500" zoomAndPan="magnify" viewBox="0 0 375 374.999991" height="500" preserveAspectRatio="xMidYMid meet" version="1.2"><defs><clipPath id="4bf3da7a7f"><path d="M 58.046875 49 L 316.796875 49 L 316.796875 168 L 58.046875 168 Z M 58.046875 49 "/></clipPath><clipPath id="fc1766c9b5"><path d="M 58.046875 48 L 316.796875 48 L 316.796875 168 L 58.046875 168 Z M 58.046875 48 "/></clipPath><clipPath id="ea8994b613"><path d="M 58.046875 191 L 316 191 L 316 308 L 58.046875 308 Z M 58.046875 191 "/></clipPath><clipPath id="020bbeb215"><path d="M 58.046875 191 L 316.796875 191 L 316.796875 308.25 L 58.046875 308.25 Z M 58.046875 191 "/></clipPath></defs><g id="77e7e604de"><g style="fill:#000000;fill-opacity:1;"><g transform="translate(100.853691, 108.23693)"><path style="stroke:none" d="M 5.09375 0 L 3.765625 0 L 3.765625 -10.25 L 0.140625 -10.25 L 0.140625 -11.421875 L 8.703125 -11.421875 L 8.703125 -10.25 L 5.09375 -10.25 Z M 5.09375 0 "/></g></g><g style="fill:#000000;fill-opacity:1;"><g transform="translate(109.703097, 108.23693)"><path style="stroke:none" d="M 5 0.15625 C 3.726562 0.15625 2.726562 -0.226562 2 -1 C 1.269531 -1.769531 0.90625 -2.84375 0.90625 -4.21875 C 0.90625 -5.59375 1.242188 -6.6875 1.921875 -7.5 C 2.597656 -8.3125 3.507812 -8.71875 4.65625 -8.71875 C 5.726562 -8.71875 6.578125 -8.363281 7.203125 -7.65625 C 7.828125 -6.957031 8.140625 -6.03125 8.140625 -4.875 L 8.140625 -4.046875 L 2.25 -4.046875 C 2.269531 -3.046875 2.519531 -2.285156 3 -1.765625 C 3.488281 -1.242188 4.171875 -0.984375 5.046875 -0.984375 C 5.960938 -0.984375 6.875 -1.175781 7.78125 -1.5625 L 7.78125 -0.40625 C 7.320312 -0.207031 6.882812 -0.0664062 6.46875 0.015625 C 6.0625 0.109375 5.570312 0.15625 5 0.15625 Z M 4.640625 -7.640625 C 3.953125 -7.640625 3.40625 -7.414062 3 -6.96875 C 2.59375 -6.519531 2.351562 -5.898438 2.28125 -5.109375 L 6.75 -5.109375 C 6.75 -5.921875 6.566406 -6.546875 6.203125 -6.984375 C 5.835938 -7.421875 5.316406 -7.640625 4.640625 -7.640625 Z M 4.640625 -7.640625 "/></g></g><g style="fill:#000000;fill-opacity:1;"><g transform="translate(118.677473, 108.23693)"><path style="stroke:none" d="M 3.4375 -4.390625 L 0.46875 -8.5625 L 1.9375 -8.5625 L 4.203125 -5.28125 L 6.453125 -8.5625 L 7.90625 -8.5625 L 4.9375 -4.390625 L 8.0625 0 L 6.59375 0 L 4.203125 -3.46875 L 1.78125 0 L 0.3125 0 Z M 3.4375 -4.390625 "/></g></g><g style="fill:#000000;fill-opacity:1;"><g transform="translate(127.058245, 108.23693)"><path style="stroke:none" d="M 4.140625 -0.921875 C 4.367188 -0.921875 4.585938 -0.9375 4.796875 -0.96875 C 5.015625 -1 5.1875 -1.035156 5.3125 -1.078125 L 5.3125 -0.078125 C 5.175781 -0.00390625 4.96875 0.0507812 4.6875 0.09375 C 4.414062 0.132812 4.171875 0.15625 3.953125 0.15625 C 2.296875 0.15625 1.46875 -0.71875 1.46875 -2.46875 L 1.46875 -7.5625 L 0.25 -7.5625 L 0.25 -8.1875 L 1.46875 -8.71875 L 2.015625 -10.546875 L 2.765625 -10.546875 L 2.765625 -8.5625 L 5.25 -8.5625 L 5.25 -7.5625 L 2.765625 -7.5625 L 2.765625 -2.515625 C 2.765625 -2.003906 2.882812 -1.609375 3.125 -1.328125 C 3.375 -1.054688 3.710938 -0.921875 4.140625 -0.921875 Z M 4.140625 -0.921875 "/></g></g><g style="fill:#000000;fill-opacity:1;"><g transform="translate(132.705308, 108.23693)"><path style="stroke:none" d="M 8.765625 -4.296875 C 8.765625 -2.898438 8.410156 -1.804688 7.703125 -1.015625 C 7.003906 -0.234375 6.035156 0.15625 4.796875 0.15625 C 4.035156 0.15625 3.359375 -0.0195312 2.765625 -0.375 C 2.171875 -0.738281 1.710938 -1.253906 1.390625 -1.921875 C 1.066406 -2.597656 0.90625 -3.390625 0.90625 -4.296875 C 0.90625 -5.691406 1.253906 -6.773438 1.953125 -7.546875 C 2.648438 -8.328125 3.617188 -8.71875 4.859375 -8.71875 C 6.054688 -8.71875 7.003906 -8.316406 7.703125 -7.515625 C 8.410156 -6.722656 8.765625 -5.648438 8.765625 -4.296875 Z M 2.25 -4.296875 C 2.25 -3.203125 2.46875 -2.367188 2.90625 -1.796875 C 3.34375 -1.222656 3.984375 -0.9375 4.828125 -0.9375 C 5.679688 -0.9375 6.328125 -1.21875 6.765625 -1.78125 C 7.203125 -2.351562 7.421875 -3.191406 7.421875 -4.296875 C 7.421875 -5.378906 7.203125 -6.203125 6.765625 -6.765625 C 6.328125 -7.335938 5.675781 -7.625 4.8125 -7.625 C 3.96875 -7.625 3.328125 -7.34375 2.890625 -6.78125 C 2.460938 -6.226562 2.25 -5.398438 2.25 -4.296875 Z M 2.25 -4.296875 "/></g></g><g style="fill:#000000;fill-opacity:1;"><g transform="translate(142.367016, 108.23693)"><path style="stroke:none" d=""/></g></g><g style="fill:#000000;fill-opacity:1;"><g transform="translate(146.522251, 108.23693)"><path style="stroke:none" d="M 7.203125 -1.15625 L 7.140625 -1.15625 C 6.535156 -0.28125 5.640625 0.15625 4.453125 0.15625 C 3.328125 0.15625 2.453125 -0.222656 1.828125 -0.984375 C 1.210938 -1.753906 0.90625 -2.847656 0.90625 -4.265625 C 0.90625 -5.671875 1.21875 -6.765625 1.84375 -7.546875 C 2.46875 -8.328125 3.335938 -8.71875 4.453125 -8.71875 C 5.609375 -8.71875 6.5 -8.296875 7.125 -7.453125 L 7.21875 -7.453125 L 7.171875 -8.078125 L 7.140625 -8.671875 L 7.140625 -12.15625 L 8.4375 -12.15625 L 8.4375 0 L 7.375 0 Z M 4.609375 -0.9375 C 5.492188 -0.9375 6.132812 -1.175781 6.53125 -1.65625 C 6.9375 -2.132812 7.140625 -2.910156 7.140625 -3.984375 L 7.140625 -4.265625 C 7.140625 -5.472656 6.9375 -6.335938 6.53125 -6.859375 C 6.125 -7.378906 5.476562 -7.640625 4.59375 -7.640625 C 3.832031 -7.640625 3.25 -7.34375 2.84375 -6.75 C 2.445312 -6.15625 2.25 -5.320312 2.25 -4.25 C 2.25 -3.15625 2.445312 -2.328125 2.84375 -1.765625 C 3.25 -1.210938 3.835938 -0.9375 4.609375 -0.9375 Z M 4.609375 -0.9375 "/></g></g><g style="fill:#000000;fill-opacity:1;"><g transform="translate(156.32455, 108.23693)"><path style="stroke:none" d="M 8.765625 -4.296875 C 8.765625 -2.898438 8.410156 -1.804688 7.703125 -1.015625 C 7.003906 -0.234375 6.035156 0.15625 4.796875 0.15625 C 4.035156 0.15625 3.359375 -0.0195312 2.765625 -0.375 C 2.171875 -0.738281 1.710938 -1.253906 1.390625 -1.921875 C 1.066406 -2.597656 0.90625 -3.390625 0.90625 -4.296875 C 0.90625 -5.691406 1.253906 -6.773438 1.953125 -7.546875 C 2.648438 -8.328125 3.617188 -8.71875 4.859375 -8.71875 C 6.054688 -8.71875 7.003906 -8.316406 7.703125 -7.515625 C 8.410156 -6.722656 8.765625 -5.648438 8.765625 -4.296875 Z M 2.25 -4.296875 C 2.25 -3.203125 2.46875 -2.367188 2.90625 -1.796875 C 3.34375 -1.222656 3.984375 -0.9375 4.828125 -0.9375 C 5.679688 -0.9375 6.328125 -1.21875 6.765625 -1.78125 C 7.203125 -2.351562 7.421875 -3.191406 7.421875 -4.296875 C 7.421875 -5.378906 7.203125 -6.203125 6.765625 -6.765625 C 6.328125 -7.335938 5.675781 -7.625 4.8125 -7.625 C 3.96875 -7.625 3.328125 -7.34375 2.890625 -6.78125 C 2.460938 -6.226562 2.25 -5.398438 2.25 -4.296875 Z M 2.25 -4.296875 "/></g></g><g style="fill:#000000;fill-opacity:1;"><g transform="translate(165.986259, 108.23693)"><path style="stroke:none" d=""/></g></g><g style="fill:#000000;fill-opacity:1;"><g transform="translate(170.141494, 108.23693)"><path style="stroke:none" d="M 6.90625 -2.34375 C 6.90625 -1.539062 6.609375 -0.921875 6.015625 -0.484375 C 5.421875 -0.0546875 4.585938 0.15625 3.515625 0.15625 C 2.378906 0.15625 1.492188 -0.0234375 0.859375 -0.390625 L 0.859375 -1.59375 C 1.265625 -1.382812 1.703125 -1.21875 2.171875 -1.09375 C 2.648438 -0.976562 3.109375 -0.921875 3.546875 -0.921875 C 4.222656 -0.921875 4.742188 -1.023438 5.109375 -1.234375 C 5.472656 -1.453125 5.65625 -1.785156 5.65625 -2.234375 C 5.65625 -2.566406 5.507812 -2.847656 5.21875 -3.078125 C 4.925781 -3.316406 4.363281 -3.597656 3.53125 -3.921875 C 2.726562 -4.222656 2.160156 -4.484375 1.828125 -4.703125 C 1.492188 -4.921875 1.242188 -5.171875 1.078125 -5.453125 C 0.910156 -5.734375 0.828125 -6.070312 0.828125 -6.46875 C 0.828125 -7.164062 1.109375 -7.710938 1.671875 -8.109375 C 2.242188 -8.515625 3.023438 -8.71875 4.015625 -8.71875 C 4.941406 -8.71875 5.84375 -8.53125 6.71875 -8.15625 L 6.265625 -7.109375 C 5.398438 -7.460938 4.617188 -7.640625 3.921875 -7.640625 C 3.304688 -7.640625 2.84375 -7.539062 2.53125 -7.34375 C 2.21875 -7.15625 2.0625 -6.890625 2.0625 -6.546875 C 2.0625 -6.316406 2.117188 -6.117188 2.234375 -5.953125 C 2.359375 -5.796875 2.550781 -5.644531 2.8125 -5.5 C 3.070312 -5.351562 3.570312 -5.144531 4.3125 -4.875 C 5.320312 -4.5 6.003906 -4.125 6.359375 -3.75 C 6.722656 -3.375 6.90625 -2.90625 6.90625 -2.34375 Z M 6.90625 -2.34375 "/></g></g><g style="fill:#000000;fill-opacity:1;"><g transform="translate(177.772448, 108.23693)"><path style="stroke:none" d="M 5 0.15625 C 3.726562 0.15625 2.726562 -0.226562 2 -1 C 1.269531 -1.769531 0.90625 -2.84375 0.90625 -4.21875 C 0.90625 -5.59375 1.242188 -6.6875 1.921875 -7.5 C 2.597656 -8.3125 3.507812 -8.71875 4.65625 -8.71875 C 5.726562 -8.71875 6.578125 -8.363281 7.203125 -7.65625 C 7.828125 -6.957031 8.140625 -6.03125 8.140625 -4.875 L 8.140625 -4.046875 L 2.25 -4.046875 C 2.269531 -3.046875 2.519531 -2.285156 3 -1.765625 C 3.488281 -1.242188 4.171875 -0.984375 5.046875 -0.984375 C 5.960938 -0.984375 6.875 -1.175781 7.78125 -1.5625 L 7.78125 -0.40625 C 7.320312 -0.207031 6.882812 -0.0664062 6.46875 0.015625 C 6.0625 0.109375 5.570312 0.15625 5 0.15625 Z M 4.640625 -7.640625 C 3.953125 -7.640625 3.40625 -7.414062 3 -6.96875 C 2.59375 -6.519531 2.351562 -5.898438 2.28125 -5.109375 L 6.75 -5.109375 C 6.75 -5.921875 6.566406 -6.546875 6.203125 -6.984375 C 5.835938 -7.421875 5.316406 -7.640625 4.640625 -7.640625 Z M 4.640625 -7.640625 "/></g></g><g style="fill:#000000;fill-opacity:1;"><g transform="translate(186.746824, 108.23693)"><path style="stroke:none" d="M 2.59375 -8.5625 L 2.59375 -3.015625 C 2.59375 -2.316406 2.75 -1.796875 3.0625 -1.453125 C 3.382812 -1.109375 3.882812 -0.9375 4.5625 -0.9375 C 5.457031 -0.9375 6.113281 -1.179688 6.53125 -1.671875 C 6.945312 -2.160156 7.15625 -2.957031 7.15625 -4.0625 L 7.15625 -8.5625 L 8.453125 -8.5625 L 8.453125 0 L 7.375 0 L 7.1875 -1.15625 L 7.125 -1.15625 C 6.851562 -0.726562 6.484375 -0.398438 6.015625 -0.171875 C 5.546875 0.046875 5.007812 0.15625 4.40625 0.15625 C 3.363281 0.15625 2.582031 -0.0859375 2.0625 -0.578125 C 1.539062 -1.078125 1.28125 -1.875 1.28125 -2.96875 L 1.28125 -8.5625 Z M 2.59375 -8.5625 "/></g></g><g style="fill:#000000;fill-opacity:1;"><g transform="translate(196.564744, 108.23693)"><path style="stroke:none" d=""/></g></g><g style="fill:#000000;fill-opacity:1;"><g transform="translate(200.719979, 108.23693)"><path style="stroke:none" d="M 5.359375 0.15625 C 4.804688 0.15625 4.296875 0.0507812 3.828125 -0.15625 C 3.367188 -0.363281 2.984375 -0.679688 2.671875 -1.109375 L 2.578125 -1.109375 C 2.640625 -0.609375 2.671875 -0.128906 2.671875 0.328125 L 2.671875 3.84375 L 1.375 3.84375 L 1.375 -8.5625 L 2.4375 -8.5625 L 2.609375 -7.390625 L 2.671875 -7.390625 C 3.003906 -7.859375 3.390625 -8.195312 3.828125 -8.40625 C 4.273438 -8.613281 4.785156 -8.71875 5.359375 -8.71875 C 6.492188 -8.71875 7.367188 -8.328125 7.984375 -7.546875 C 8.609375 -6.773438 8.921875 -5.691406 8.921875 -4.296875 C 8.921875 -2.890625 8.601562 -1.796875 7.96875 -1.015625 C 7.34375 -0.234375 6.472656 0.15625 5.359375 0.15625 Z M 5.171875 -7.625 C 4.296875 -7.625 3.660156 -7.378906 3.265625 -6.890625 C 2.878906 -6.410156 2.679688 -5.640625 2.671875 -4.578125 L 2.671875 -4.296875 C 2.671875 -3.085938 2.867188 -2.222656 3.265625 -1.703125 C 3.671875 -1.191406 4.316406 -0.9375 5.203125 -0.9375 C 5.941406 -0.9375 6.519531 -1.234375 6.9375 -1.828125 C 7.363281 -2.429688 7.578125 -3.257812 7.578125 -4.3125 C 7.578125 -5.375 7.363281 -6.191406 6.9375 -6.765625 C 6.519531 -7.335938 5.929688 -7.625 5.171875 -7.625 Z M 5.171875 -7.625 "/></g></g><g style="fill:#000000;fill-opacity:1;"><g transform="translate(210.522278, 108.23693)"><path style="stroke:none" d="M 6.640625 0 L 6.390625 -1.21875 L 6.328125 -1.21875 C 5.898438 -0.6875 5.472656 -0.320312 5.046875 -0.125 C 4.617188 0.0625 4.085938 0.15625 3.453125 0.15625 C 2.609375 0.15625 1.941406 -0.0625 1.453125 -0.5 C 0.972656 -0.9375 0.734375 -1.5625 0.734375 -2.375 C 0.734375 -4.101562 2.117188 -5.007812 4.890625 -5.09375 L 6.34375 -5.140625 L 6.34375 -5.671875 C 6.34375 -6.335938 6.195312 -6.832031 5.90625 -7.15625 C 5.613281 -7.476562 5.148438 -7.640625 4.515625 -7.640625 C 3.804688 -7.640625 3 -7.421875 2.09375 -6.984375 L 1.703125 -7.96875 C 2.117188 -8.195312 2.578125 -8.375 3.078125 -8.5 C 3.585938 -8.632812 4.09375 -8.703125 4.59375 -8.703125 C 5.613281 -8.703125 6.367188 -8.472656 6.859375 -8.015625 C 7.359375 -7.566406 7.609375 -6.84375 7.609375 -5.84375 L 7.609375 0 Z M 3.71875 -0.921875 C 4.519531 -0.921875 5.148438 -1.140625 5.609375 -1.578125 C 6.078125 -2.023438 6.3125 -2.644531 6.3125 -3.4375 L 6.3125 -4.21875 L 5.015625 -4.15625 C 3.984375 -4.125 3.238281 -3.960938 2.78125 -3.671875 C 2.320312 -3.390625 2.09375 -2.953125 2.09375 -2.359375 C 2.09375 -1.890625 2.234375 -1.53125 2.515625 -1.28125 C 2.804688 -1.039062 3.207031 -0.921875 3.71875 -0.921875 Z M 3.71875 -0.921875 "/></g></g><g style="fill:#000000;fill-opacity:1;"><g transform="translate(219.418548, 108.23693)"><path style="stroke:none" d="M 5.28125 -8.71875 C 5.664062 -8.71875 6.007812 -8.6875 6.3125 -8.625 L 6.125 -7.421875 C 5.769531 -7.503906 5.457031 -7.546875 5.1875 -7.546875 C 4.5 -7.546875 3.90625 -7.265625 3.40625 -6.703125 C 2.914062 -6.140625 2.671875 -5.4375 2.671875 -4.59375 L 2.671875 0 L 1.375 0 L 1.375 -8.5625 L 2.453125 -8.5625 L 2.59375 -6.984375 L 2.65625 -6.984375 C 2.976562 -7.535156 3.363281 -7.960938 3.8125 -8.265625 C 4.257812 -8.566406 4.75 -8.71875 5.28125 -8.71875 Z M 5.28125 -8.71875 "/></g></g><g style="fill:#000000;fill-opacity:1;"><g transform="translate(225.948203, 108.23693)"><path style="stroke:none" d="M 6.640625 0 L 6.390625 -1.21875 L 6.328125 -1.21875 C 5.898438 -0.6875 5.472656 -0.320312 5.046875 -0.125 C 4.617188 0.0625 4.085938 0.15625 3.453125 0.15625 C 2.609375 0.15625 1.941406 -0.0625 1.453125 -0.5 C 0.972656 -0.9375 0.734375 -1.5625 0.734375 -2.375 C 0.734375 -4.101562 2.117188 -5.007812 4.890625 -5.09375 L 6.34375 -5.140625 L 6.34375 -5.671875 C 6.34375 -6.335938 6.195312 -6.832031 5.90625 -7.15625 C 5.613281 -7.476562 5.148438 -7.640625 4.515625 -7.640625 C 3.804688 -7.640625 3 -7.421875 2.09375 -6.984375 L 1.703125 -7.96875 C 2.117188 -8.195312 2.578125 -8.375 3.078125 -8.5 C 3.585938 -8.632812 4.09375 -8.703125 4.59375 -8.703125 C 5.613281 -8.703125 6.367188 -8.472656 6.859375 -8.015625 C 7.359375 -7.566406 7.609375 -6.84375 7.609375 -5.84375 L 7.609375 0 Z M 3.71875 -0.921875 C 4.519531 -0.921875 5.148438 -1.140625 5.609375 -1.578125 C 6.078125 -2.023438 6.3125 -2.644531 6.3125 -3.4375 L 6.3125 -4.21875 L 5.015625 -4.15625 C 3.984375 -4.125 3.238281 -3.960938 2.78125 -3.671875 C 2.320312 -3.390625 2.09375 -2.953125 2.09375 -2.359375 C 2.09375 -1.890625 2.234375 -1.53125 2.515625 -1.28125 C 2.804688 -1.039062 3.207031 -0.921875 3.71875 -0.921875 Z M 3.421875 -9.890625 C 3.671875 -10.210938 3.9375 -10.601562 4.21875 -11.0625 C 4.507812 -11.519531 4.738281 -11.921875 4.90625 -12.265625 L 6.484375 -12.265625 L 6.484375 -12.09375 C 6.253906 -11.757812 5.910156 -11.34375 5.453125 -10.84375 C 5.003906 -10.351562 4.613281 -9.972656 4.28125 -9.703125 L 3.421875 -9.703125 Z M 3.421875 -9.890625 "/></g></g><g style="fill:#000000;fill-opacity:1;"><g transform="translate(234.844473, 108.23693)"><path style="stroke:none" d="M 8.390625 -8.5625 L 8.390625 -7.75 L 6.796875 -7.5625 C 6.941406 -7.375 7.070312 -7.132812 7.1875 -6.84375 C 7.300781 -6.550781 7.359375 -6.21875 7.359375 -5.84375 C 7.359375 -5.007812 7.070312 -4.34375 6.5 -3.84375 C 5.925781 -3.34375 5.140625 -3.09375 4.140625 -3.09375 C 3.890625 -3.09375 3.648438 -3.113281 3.421875 -3.15625 C 2.867188 -2.863281 2.59375 -2.492188 2.59375 -2.046875 C 2.59375 -1.816406 2.6875 -1.644531 2.875 -1.53125 C 3.070312 -1.414062 3.40625 -1.359375 3.875 -1.359375 L 5.390625 -1.359375 C 6.316406 -1.359375 7.03125 -1.160156 7.53125 -0.765625 C 8.03125 -0.378906 8.28125 0.1875 8.28125 0.9375 C 8.28125 1.882812 7.898438 2.601562 7.140625 3.09375 C 6.378906 3.59375 5.269531 3.84375 3.8125 3.84375 C 2.6875 3.84375 1.820312 3.632812 1.21875 3.21875 C 0.613281 2.800781 0.3125 2.210938 0.3125 1.453125 C 0.3125 0.929688 0.476562 0.476562 0.8125 0.09375 C 1.144531 -0.28125 1.613281 -0.535156 2.21875 -0.671875 C 2 -0.773438 1.8125 -0.929688 1.65625 -1.140625 C 1.507812 -1.347656 1.4375 -1.585938 1.4375 -1.859375 C 1.4375 -2.171875 1.519531 -2.441406 1.6875 -2.671875 C 1.851562 -2.910156 2.117188 -3.140625 2.484375 -3.359375 C 2.035156 -3.546875 1.671875 -3.859375 1.390625 -4.296875 C 1.117188 -4.734375 0.984375 -5.234375 0.984375 -5.796875 C 0.984375 -6.734375 1.265625 -7.453125 1.828125 -7.953125 C 2.390625 -8.460938 3.1875 -8.71875 4.21875 -8.71875 C 4.664062 -8.71875 5.066406 -8.664062 5.421875 -8.5625 Z M 1.5625 1.4375 C 1.5625 1.90625 1.753906 2.257812 2.140625 2.5 C 2.535156 2.738281 3.097656 2.859375 3.828125 2.859375 C 4.910156 2.859375 5.710938 2.691406 6.234375 2.359375 C 6.765625 2.035156 7.03125 1.597656 7.03125 1.046875 C 7.03125 0.578125 6.882812 0.25 6.59375 0.0625 C 6.3125 -0.113281 5.773438 -0.203125 4.984375 -0.203125 L 3.421875 -0.203125 C 2.835938 -0.203125 2.378906 -0.0625 2.046875 0.21875 C 1.722656 0.507812 1.5625 0.914062 1.5625 1.4375 Z M 2.265625 -5.828125 C 2.265625 -5.222656 2.429688 -4.765625 2.765625 -4.453125 C 3.109375 -4.148438 3.582031 -4 4.1875 -4 C 5.445312 -4 6.078125 -4.613281 6.078125 -5.84375 C 6.078125 -7.132812 5.4375 -7.78125 4.15625 -7.78125 C 3.550781 -7.78125 3.082031 -7.613281 2.75 -7.28125 C 2.425781 -6.957031 2.265625 -6.472656 2.265625 -5.828125 Z M 2.265625 -5.828125 "/></g></g><g style="fill:#000000;fill-opacity:1;"><g transform="translate(243.607957, 108.23693)"><path style="stroke:none" d="M 5.28125 -8.71875 C 5.664062 -8.71875 6.007812 -8.6875 6.3125 -8.625 L 6.125 -7.421875 C 5.769531 -7.503906 5.457031 -7.546875 5.1875 -7.546875 C 4.5 -7.546875 3.90625 -7.265625 3.40625 -6.703125 C 2.914062 -6.140625 2.671875 -5.4375 2.671875 -4.59375 L 2.671875 0 L 1.375 0 L 1.375 -8.5625 L 2.453125 -8.5625 L 2.59375 -6.984375 L 2.65625 -6.984375 C 2.976562 -7.535156 3.363281 -7.960938 3.8125 -8.265625 C 4.257812 -8.566406 4.75 -8.71875 5.28125 -8.71875 Z M 5.28125 -8.71875 "/></g></g><g style="fill:#000000;fill-opacity:1;"><g transform="translate(250.137613, 108.23693)"><path style="stroke:none" d="M 6.640625 0 L 6.390625 -1.21875 L 6.328125 -1.21875 C 5.898438 -0.6875 5.472656 -0.320312 5.046875 -0.125 C 4.617188 0.0625 4.085938 0.15625 3.453125 0.15625 C 2.609375 0.15625 1.941406 -0.0625 1.453125 -0.5 C 0.972656 -0.9375 0.734375 -1.5625 0.734375 -2.375 C 0.734375 -4.101562 2.117188 -5.007812 4.890625 -5.09375 L 6.34375 -5.140625 L 6.34375 -5.671875 C 6.34375 -6.335938 6.195312 -6.832031 5.90625 -7.15625 C 5.613281 -7.476562 5.148438 -7.640625 4.515625 -7.640625 C 3.804688 -7.640625 3 -7.421875 2.09375 -6.984375 L 1.703125 -7.96875 C 2.117188 -8.195312 2.578125 -8.375 3.078125 -8.5 C 3.585938 -8.632812 4.09375 -8.703125 4.59375 -8.703125 C 5.613281 -8.703125 6.367188 -8.472656 6.859375 -8.015625 C 7.359375 -7.566406 7.609375 -6.84375 7.609375 -5.84375 L 7.609375 0 Z M 3.71875 -0.921875 C 4.519531 -0.921875 5.148438 -1.140625 5.609375 -1.578125 C 6.078125 -2.023438 6.3125 -2.644531 6.3125 -3.4375 L 6.3125 -4.21875 L 5.015625 -4.15625 C 3.984375 -4.125 3.238281 -3.960938 2.78125 -3.671875 C 2.320312 -3.390625 2.09375 -2.953125 2.09375 -2.359375 C 2.09375 -1.890625 2.234375 -1.53125 2.515625 -1.28125 C 2.804688 -1.039062 3.207031 -0.921875 3.71875 -0.921875 Z M 3.71875 -0.921875 "/></g></g><g style="fill:#000000;fill-opacity:1;"><g transform="translate(259.033883, 108.23693)"><path style="stroke:none" d="M 5.234375 -7.5625 L 3.0625 -7.5625 L 3.0625 0 L 1.765625 0 L 1.765625 -7.5625 L 0.234375 -7.5625 L 0.234375 -8.140625 L 1.765625 -8.609375 L 1.765625 -9.09375 C 1.765625 -11.195312 2.679688 -12.25 4.515625 -12.25 C 4.972656 -12.25 5.503906 -12.15625 6.109375 -11.96875 L 5.78125 -10.9375 C 5.28125 -11.09375 4.851562 -11.171875 4.5 -11.171875 C 4.007812 -11.171875 3.644531 -11.007812 3.40625 -10.6875 C 3.175781 -10.363281 3.0625 -9.84375 3.0625 -9.125 L 3.0625 -8.5625 L 5.234375 -8.5625 Z M 5.234375 -7.5625 "/></g></g><g style="fill:#000000;fill-opacity:1;"><g transform="translate(264.454434, 108.23693)"><path style="stroke:none" d="M 8.765625 -4.296875 C 8.765625 -2.898438 8.410156 -1.804688 7.703125 -1.015625 C 7.003906 -0.234375 6.035156 0.15625 4.796875 0.15625 C 4.035156 0.15625 3.359375 -0.0195312 2.765625 -0.375 C 2.171875 -0.738281 1.710938 -1.253906 1.390625 -1.921875 C 1.066406 -2.597656 0.90625 -3.390625 0.90625 -4.296875 C 0.90625 -5.691406 1.253906 -6.773438 1.953125 -7.546875 C 2.648438 -8.328125 3.617188 -8.71875 4.859375 -8.71875 C 6.054688 -8.71875 7.003906 -8.316406 7.703125 -7.515625 C 8.410156 -6.722656 8.765625 -5.648438 8.765625 -4.296875 Z M 2.25 -4.296875 C 2.25 -3.203125 2.46875 -2.367188 2.90625 -1.796875 C 3.34375 -1.222656 3.984375 -0.9375 4.828125 -0.9375 C 5.679688 -0.9375 6.328125 -1.21875 6.765625 -1.78125 C 7.203125 -2.351562 7.421875 -3.191406 7.421875 -4.296875 C 7.421875 -5.378906 7.203125 -6.203125 6.765625 -6.765625 C 6.328125 -7.335938 5.675781 -7.625 4.8125 -7.625 C 3.96875 -7.625 3.328125 -7.34375 2.890625 -6.78125 C 2.460938 -6.226562 2.25 -5.398438 2.25 -4.296875 Z M 2.25 -4.296875 "/></g></g><g clip-rule="nonzero" clip-path="url(#4bf3da7a7f)"><path style=" stroke:none;fill-rule:nonzero;fill:#00e091;fill-opacity:1;" d="M 316.175781 167.628906 L 240.210938 167.628906 C 235.140625 143.0625 213.386719 124.597656 187.320312 124.597656 C 161.253906 124.597656 139.5 143.0625 134.429688 167.628906 L 58.464844 167.628906 C 64.035156 101.34375 119.597656 49.289062 187.320312 49.289062 C 255.042969 49.289062 310.605469 101.34375 316.175781 167.628906 Z M 316.175781 167.628906 "/></g><g clip-rule="nonzero" clip-path="url(#fc1766c9b5)"><path style=" stroke:none;fill-rule:nonzero;fill:#00ffb2;fill-opacity:1;" d="M 316.535156 167.957031 L 239.945312 167.957031 L 239.890625 167.695312 C 234.773438 142.910156 212.664062 124.925781 187.320312 124.925781 C 161.976562 124.925781 139.867188 142.914062 134.75 167.695312 L 134.695312 167.957031 L 58.105469 167.957031 L 58.136719 167.601562 C 60.847656 135.335938 75.488281 105.417969 99.363281 83.359375 C 100.84375 81.996094 102.351562 80.664062 103.894531 79.367188 C 105.4375 78.070312 107.007812 76.8125 108.609375 75.589844 C 110.210938 74.367188 111.835938 73.179688 113.492188 72.035156 C 115.148438 70.886719 116.832031 69.777344 118.539062 68.710938 C 120.246094 67.640625 121.976562 66.613281 123.730469 65.625 C 125.488281 64.636719 127.265625 63.691406 129.066406 62.785156 C 130.863281 61.878906 132.683594 61.019531 134.523438 60.199219 C 136.363281 59.378906 138.222656 58.601562 140.097656 57.867188 C 141.972656 57.132812 143.863281 56.441406 145.773438 55.796875 C 147.679688 55.152344 149.601562 54.550781 151.539062 53.996094 C 153.476562 53.441406 155.421875 52.929688 157.382812 52.464844 C 159.34375 52 161.3125 51.578125 163.292969 51.207031 C 165.273438 50.832031 167.257812 50.507812 169.253906 50.226562 C 171.25 49.945312 173.25 49.710938 175.253906 49.523438 C 177.257812 49.335938 179.269531 49.195312 181.28125 49.101562 C 183.292969 49.007812 185.304688 48.960938 187.320312 48.960938 C 189.335938 48.960938 191.347656 49.007812 193.359375 49.101562 C 195.371094 49.195312 197.378906 49.335938 199.386719 49.523438 C 201.390625 49.710938 203.390625 49.945312 205.386719 50.226562 C 207.382812 50.507812 209.367188 50.832031 211.347656 51.207031 C 213.328125 51.578125 215.296875 52 217.257812 52.464844 C 219.214844 52.929688 221.164062 53.441406 223.101562 53.996094 C 225.035156 54.550781 226.957031 55.152344 228.867188 55.796875 C 230.773438 56.441406 232.667969 57.132812 234.542969 57.867188 C 236.417969 58.601562 238.277344 59.378906 240.117188 60.199219 C 241.957031 61.019531 243.777344 61.878906 245.574219 62.785156 C 247.375 63.691406 249.152344 64.636719 250.90625 65.625 C 252.664062 66.613281 254.394531 67.640625 256.101562 68.710938 C 257.808594 69.777344 259.492188 70.886719 261.148438 72.035156 C 262.804688 73.179688 264.429688 74.367188 266.03125 75.589844 C 267.632812 76.8125 269.203125 78.070312 270.746094 79.367188 C 272.289062 80.664062 273.796875 81.996094 275.277344 83.359375 C 299.152344 105.417969 313.792969 135.335938 316.503906 167.601562 Z M 240.480469 167.296875 L 315.816406 167.296875 C 310.082031 101.277344 253.710938 49.621094 187.320312 49.621094 C 120.929688 49.621094 64.554688 101.277344 58.824219 167.296875 L 134.160156 167.296875 C 134.480469 165.789062 134.867188 164.296875 135.316406 162.824219 C 135.761719 161.347656 136.273438 159.894531 136.84375 158.460938 C 137.417969 157.03125 138.046875 155.625 138.738281 154.246094 C 139.429688 152.867188 140.179688 151.523438 140.984375 150.207031 C 141.792969 148.894531 142.652344 147.613281 143.566406 146.375 C 144.484375 145.132812 145.449219 143.933594 146.464844 142.773438 C 147.480469 141.613281 148.546875 140.5 149.660156 139.433594 C 150.769531 138.363281 151.925781 137.34375 153.125 136.375 C 154.324219 135.402344 155.558594 134.488281 156.835938 133.621094 C 158.113281 132.757812 159.425781 131.949219 160.769531 131.195312 C 162.117188 130.441406 163.492188 129.746094 164.894531 129.109375 C 166.300781 128.472656 167.730469 127.898438 169.183594 127.382812 C 170.636719 126.871094 172.109375 126.417969 173.601562 126.027344 C 175.09375 125.640625 176.597656 125.3125 178.117188 125.054688 C 179.636719 124.792969 181.167969 124.597656 182.703125 124.464844 C 184.238281 124.335938 185.777344 124.269531 187.320312 124.269531 C 188.863281 124.269531 190.402344 124.335938 191.9375 124.464844 C 193.472656 124.597656 195.003906 124.792969 196.523438 125.054688 C 198.042969 125.3125 199.546875 125.640625 201.039062 126.027344 C 202.53125 126.417969 204.003906 126.871094 205.457031 127.382812 C 206.910156 127.898438 208.339844 128.472656 209.746094 129.109375 C 211.148438 129.746094 212.523438 130.441406 213.871094 131.195312 C 215.214844 131.949219 216.527344 132.757812 217.804688 133.621094 C 219.082031 134.488281 220.316406 135.402344 221.515625 136.375 C 222.714844 137.34375 223.871094 138.363281 224.980469 139.433594 C 226.09375 140.5 227.15625 141.613281 228.175781 142.773438 C 229.191406 143.933594 230.15625 145.132812 231.074219 146.375 C 231.988281 147.613281 232.847656 148.894531 233.652344 150.207031 C 234.460938 151.523438 235.207031 152.867188 235.898438 154.246094 C 236.59375 155.625 237.222656 157.03125 237.796875 158.460938 C 238.367188 159.894531 238.878906 161.347656 239.324219 162.824219 C 239.773438 164.296875 240.160156 165.789062 240.480469 167.296875 Z M 240.480469 167.296875 "/></g><g clip-rule="nonzero" clip-path="url(#ea8994b613)"><path style=" stroke:none;fill-rule:nonzero;fill:#00e091;fill-opacity:1;" d="M 315.972656 191.777344 C 309.371094 257.011719 254.292969 307.921875 187.320312 307.921875 C 120.347656 307.921875 65.265625 257.011719 58.667969 191.777344 L 134.929688 191.777344 C 140.808594 215.238281 162.035156 232.613281 187.320312 232.613281 C 212.605469 232.613281 233.828125 215.238281 239.710938 191.777344 Z M 315.972656 191.777344 "/></g><g clip-rule="nonzero" clip-path="url(#020bbeb215)"><path style=" stroke:none;fill-rule:nonzero;fill:#00ffb2;fill-opacity:1;" d="M 187.320312 308.25 C 185.335938 308.25 183.351562 308.203125 181.371094 308.113281 C 179.390625 308.023438 177.410156 307.886719 175.4375 307.703125 C 173.460938 307.523438 171.488281 307.292969 169.523438 307.023438 C 167.558594 306.75 165.601562 306.433594 163.652344 306.070312 C 161.699219 305.707031 159.757812 305.300781 157.828125 304.851562 C 155.894531 304.398438 153.976562 303.902344 152.066406 303.363281 C 150.15625 302.824219 148.261719 302.242188 146.378906 301.613281 C 144.496094 300.988281 142.628906 300.320312 140.777344 299.605469 C 138.925781 298.894531 137.089844 298.140625 135.273438 297.34375 C 133.457031 296.546875 131.660156 295.710938 129.882812 294.832031 C 128.101562 293.953125 126.34375 293.03125 124.609375 292.074219 C 122.871094 291.113281 121.160156 290.113281 119.46875 289.078125 C 117.777344 288.039062 116.113281 286.960938 114.472656 285.847656 C 112.828125 284.734375 111.214844 283.582031 109.625 282.390625 C 108.039062 281.203125 106.476562 279.976562 104.945312 278.71875 C 103.414062 277.457031 101.910156 276.164062 100.4375 274.832031 C 98.96875 273.503906 97.527344 272.140625 96.117188 270.746094 C 94.707031 269.351562 93.328125 267.921875 91.984375 266.464844 C 90.640625 265.003906 89.328125 263.515625 88.050781 261.996094 C 86.777344 260.480469 85.535156 258.929688 84.332031 257.355469 C 83.125 255.78125 81.957031 254.175781 80.824219 252.546875 C 79.695312 250.917969 78.601562 249.261719 77.542969 247.582031 C 76.488281 245.902344 75.472656 244.199219 74.496094 242.472656 C 73.515625 240.746094 72.578125 239 71.683594 237.230469 C 70.785156 235.460938 69.929688 233.671875 69.113281 231.863281 C 68.300781 230.054688 67.527344 228.226562 66.792969 226.382812 C 66.0625 224.539062 65.375 222.679688 64.730469 220.804688 C 64.082031 218.929688 63.480469 217.039062 62.921875 215.136719 C 62.363281 213.230469 61.847656 211.316406 61.375 209.390625 C 60.902344 207.460938 60.476562 205.523438 60.09375 203.578125 C 59.710938 201.632812 59.375 199.675781 59.082031 197.714844 C 58.789062 195.753906 58.542969 193.785156 58.339844 191.8125 L 58.304688 191.449219 L 135.1875 191.449219 L 135.25 191.699219 C 135.613281 193.136719 136.03125 194.554688 136.511719 195.957031 C 136.992188 197.359375 137.527344 198.742188 138.121094 200.097656 C 138.714844 201.457031 139.363281 202.789062 140.066406 204.09375 C 140.773438 205.398438 141.527344 206.667969 142.335938 207.910156 C 143.148438 209.152344 144.007812 210.359375 144.914062 211.53125 C 145.824219 212.699219 146.78125 213.832031 147.785156 214.921875 C 148.785156 216.015625 149.832031 217.0625 150.921875 218.066406 C 152.011719 219.070312 153.140625 220.027344 154.308594 220.941406 C 155.480469 221.851562 156.683594 222.710938 157.925781 223.523438 C 159.164062 224.335938 160.4375 225.09375 161.738281 225.800781 C 163.042969 226.507812 164.371094 227.15625 165.730469 227.753906 C 167.085938 228.347656 168.464844 228.886719 169.867188 229.371094 C 171.269531 229.851562 172.6875 230.273438 174.125 230.640625 C 175.5625 231.003906 177.011719 231.308594 178.472656 231.550781 C 179.933594 231.796875 181.402344 231.980469 182.882812 232.101562 C 184.359375 232.222656 185.839844 232.285156 187.320312 232.285156 C 188.800781 232.285156 190.28125 232.222656 191.757812 232.101562 C 193.234375 231.980469 194.707031 231.796875 196.167969 231.550781 C 197.628906 231.308594 199.078125 231.003906 200.515625 230.640625 C 201.953125 230.273438 203.371094 229.851562 204.773438 229.371094 C 206.175781 228.886719 207.554688 228.347656 208.910156 227.753906 C 210.269531 227.15625 211.597656 226.507812 212.902344 225.800781 C 214.203125 225.09375 215.476562 224.335938 216.714844 223.523438 C 217.957031 222.710938 219.160156 221.851562 220.328125 220.941406 C 221.5 220.027344 222.628906 219.070312 223.71875 218.066406 C 224.808594 217.0625 225.855469 216.015625 226.855469 214.921875 C 227.859375 213.832031 228.816406 212.699219 229.722656 211.53125 C 230.632812 210.359375 231.492188 209.152344 232.300781 207.910156 C 233.113281 206.667969 233.867188 205.398438 234.570312 204.09375 C 235.277344 202.789062 235.925781 201.457031 236.519531 200.097656 C 237.113281 198.742188 237.648438 197.359375 238.128906 195.957031 C 238.609375 194.554688 239.027344 193.136719 239.390625 191.699219 L 239.453125 191.449219 L 316.335938 191.449219 L 316.300781 191.8125 C 316.097656 193.785156 315.851562 195.753906 315.558594 197.714844 C 315.265625 199.675781 314.925781 201.632812 314.546875 203.578125 C 314.164062 205.523438 313.734375 207.460938 313.265625 209.390625 C 312.792969 211.316406 312.277344 213.230469 311.71875 215.136719 C 311.160156 217.039062 310.558594 218.929688 309.910156 220.804688 C 309.265625 222.679688 308.578125 224.539062 307.847656 226.382812 C 307.113281 228.226562 306.339844 230.054688 305.527344 231.863281 C 304.710938 233.671875 303.855469 235.460938 302.957031 237.230469 C 302.058594 239 301.125 240.746094 300.144531 242.472656 C 299.167969 244.199219 298.152344 245.902344 297.097656 247.582031 C 296.039062 249.261719 294.945312 250.917969 293.816406 252.546875 C 292.683594 254.175781 291.515625 255.78125 290.308594 257.355469 C 289.105469 258.929688 287.863281 260.480469 286.585938 261.996094 C 285.3125 263.515625 284 265.003906 282.65625 266.464844 C 281.3125 267.921875 279.933594 269.351562 278.523438 270.746094 C 277.113281 272.140625 275.671875 273.503906 274.199219 274.832031 C 272.726562 276.164062 271.226562 277.457031 269.695312 278.71875 C 268.160156 279.976562 266.601562 281.203125 265.011719 282.390625 C 263.425781 283.582031 261.8125 284.734375 260.167969 285.847656 C 258.527344 286.960938 256.863281 288.039062 255.171875 289.078125 C 253.480469 290.113281 251.769531 291.113281 250.03125 292.074219 C 248.296875 293.03125 246.539062 293.953125 244.757812 294.832031 C 242.980469 295.710938 241.183594 296.546875 239.367188 297.34375 C 237.546875 298.140625 235.714844 298.894531 233.863281 299.605469 C 232.011719 300.320312 230.144531 300.988281 228.261719 301.613281 C 226.378906 302.242188 224.484375 302.824219 222.574219 303.363281 C 220.664062 303.902344 218.746094 304.398438 216.8125 304.851562 C 214.882812 305.300781 212.941406 305.707031 210.988281 306.070312 C 209.039062 306.433594 207.082031 306.75 205.117188 307.023438 C 203.152344 307.292969 201.179688 307.523438 199.203125 307.703125 C 197.230469 307.886719 195.25 308.023438 193.269531 308.113281 C 191.285156 308.203125 189.304688 308.25 187.320312 308.25 Z M 59.03125 192.109375 C 65.878906 257.96875 120.964844 307.589844 187.320312 307.589844 C 253.675781 307.589844 308.761719 257.96875 315.609375 192.109375 L 239.964844 192.109375 C 239.226562 194.96875 238.261719 197.753906 237.066406 200.457031 C 235.875 203.160156 234.472656 205.753906 232.863281 208.230469 C 231.25 210.707031 229.449219 213.039062 227.457031 215.222656 C 225.46875 217.40625 223.3125 219.417969 220.996094 221.253906 C 219.808594 222.191406 218.582031 223.078125 217.320312 223.914062 C 216.058594 224.75 214.761719 225.53125 213.433594 226.257812 C 212.105469 226.988281 210.75 227.65625 209.367188 228.273438 C 207.980469 228.886719 206.574219 229.441406 205.144531 229.9375 C 203.714844 230.433594 202.265625 230.871094 200.796875 231.246094 C 199.332031 231.621094 197.851562 231.933594 196.359375 232.1875 C 194.867188 232.4375 193.363281 232.628906 191.855469 232.753906 C 190.347656 232.882812 188.835938 232.945312 187.320312 232.945312 C 185.808594 232.945312 184.296875 232.882812 182.785156 232.753906 C 181.277344 232.628906 179.777344 232.4375 178.285156 232.1875 C 176.789062 231.933594 175.308594 231.621094 173.84375 231.246094 C 172.375 230.871094 170.929688 230.433594 169.496094 229.9375 C 168.066406 229.441406 166.660156 228.886719 165.277344 228.273438 C 163.890625 227.65625 162.535156 226.988281 161.207031 226.257812 C 159.878906 225.53125 158.585938 224.75 157.324219 223.914062 C 156.058594 223.078125 154.835938 222.191406 153.644531 221.253906 C 151.328125 219.417969 149.175781 217.40625 147.183594 215.222656 C 145.195312 213.039062 143.390625 210.707031 141.78125 208.230469 C 140.167969 205.753906 138.765625 203.160156 137.574219 200.457031 C 136.382812 197.753906 135.417969 194.96875 134.675781 192.109375 Z M 59.03125 192.109375 "/></g><path style=" stroke:none;fill-rule:nonzero;fill:#00e091;fill-opacity:1;" d="M 216.738281 178.605469 C 216.738281 179.207031 216.71875 179.808594 216.683594 180.410156 C 216.644531 181.011719 216.589844 181.613281 216.515625 182.210938 C 216.441406 182.808594 216.347656 183.402344 216.238281 183.996094 C 216.125 184.585938 215.996094 185.175781 215.851562 185.757812 C 215.703125 186.34375 215.539062 186.921875 215.355469 187.496094 C 215.171875 188.070312 214.972656 188.636719 214.753906 189.199219 C 214.535156 189.761719 214.300781 190.316406 214.050781 190.863281 C 213.796875 191.410156 213.53125 191.949219 213.246094 192.480469 C 212.960938 193.011719 212.660156 193.53125 212.34375 194.042969 C 212.027344 194.558594 211.691406 195.058594 211.34375 195.550781 C 210.996094 196.042969 210.636719 196.523438 210.257812 196.992188 C 209.878906 197.460938 209.488281 197.921875 209.082031 198.367188 C 208.679688 198.8125 208.257812 199.242188 207.828125 199.664062 C 207.394531 200.082031 206.949219 200.488281 206.492188 200.882812 C 206.035156 201.273438 205.566406 201.652344 205.085938 202.015625 C 204.605469 202.378906 204.117188 202.726562 203.613281 203.0625 C 203.113281 203.394531 202.601562 203.710938 202.078125 204.015625 C 201.558594 204.316406 201.027344 204.601562 200.488281 204.871094 C 199.949219 205.140625 199.402344 205.394531 198.851562 205.628906 C 198.296875 205.863281 197.734375 206.082031 197.167969 206.285156 C 196.597656 206.484375 196.023438 206.667969 195.445312 206.835938 C 194.867188 207 194.285156 207.148438 193.695312 207.28125 C 193.105469 207.410156 192.515625 207.523438 191.921875 207.617188 C 191.324219 207.710938 190.726562 207.785156 190.128906 207.84375 C 189.527344 207.898438 188.925781 207.9375 188.324219 207.957031 C 187.722656 207.976562 187.121094 207.980469 186.519531 207.960938 C 185.917969 207.945312 185.316406 207.910156 184.714844 207.855469 C 184.117188 207.800781 183.519531 207.730469 182.921875 207.640625 C 182.328125 207.546875 181.734375 207.441406 181.144531 207.3125 C 180.558594 207.183594 179.972656 207.039062 179.394531 206.878906 C 178.8125 206.714844 178.238281 206.535156 177.667969 206.335938 C 177.101562 206.136719 176.539062 205.921875 175.984375 205.6875 C 175.425781 205.457031 174.878906 205.207031 174.339844 204.941406 C 173.800781 204.671875 173.265625 204.390625 172.746094 204.089844 C 172.222656 203.792969 171.707031 203.476562 171.203125 203.144531 C 170.703125 202.816406 170.207031 202.46875 169.726562 202.109375 C 169.246094 201.746094 168.773438 201.371094 168.316406 200.980469 C 167.855469 200.589844 167.410156 200.1875 166.972656 199.769531 C 166.539062 199.351562 166.121094 198.921875 165.710938 198.480469 C 165.304688 198.035156 164.910156 197.578125 164.53125 197.113281 C 164.148438 196.644531 163.785156 196.164062 163.433594 195.675781 C 163.085938 195.1875 162.75 194.683594 162.429688 194.175781 C 162.109375 193.664062 161.804688 193.144531 161.519531 192.613281 C 161.230469 192.085938 160.960938 191.546875 160.707031 191 C 160.449219 190.457031 160.214844 189.902344 159.992188 189.34375 C 159.773438 188.78125 159.570312 188.214844 159.382812 187.640625 C 159.199219 187.070312 159.03125 186.488281 158.878906 185.90625 C 158.730469 185.324219 158.597656 184.734375 158.484375 184.144531 C 158.371094 183.554688 158.273438 182.957031 158.195312 182.359375 C 158.117188 181.761719 158.058594 181.164062 158.019531 180.5625 C 157.976562 179.960938 157.957031 179.359375 157.953125 178.757812 C 157.949219 178.15625 157.964844 177.554688 157.996094 176.953125 C 158.03125 176.351562 158.082031 175.75 158.152344 175.152344 C 158.222656 174.554688 158.3125 173.957031 158.417969 173.367188 C 158.523438 172.773438 158.648438 172.183594 158.792969 171.597656 C 158.9375 171.011719 159.097656 170.433594 159.277344 169.859375 C 159.453125 169.28125 159.648438 168.714844 159.863281 168.148438 C 160.078125 167.585938 160.308594 167.03125 160.554688 166.480469 C 160.804688 165.933594 161.070312 165.390625 161.351562 164.859375 C 161.632812 164.328125 161.929688 163.804688 162.242188 163.289062 C 162.554688 162.773438 162.882812 162.269531 163.230469 161.773438 C 163.574219 161.28125 163.933594 160.796875 164.304688 160.324219 C 164.679688 159.851562 165.070312 159.394531 165.472656 158.945312 C 165.875 158.496094 166.289062 158.0625 166.71875 157.636719 C 167.148438 157.214844 167.589844 156.804688 168.042969 156.410156 C 168.5 156.015625 168.964844 155.632812 169.441406 155.265625 C 169.917969 154.898438 170.410156 154.546875 170.90625 154.210938 C 171.40625 153.875 171.917969 153.554688 172.4375 153.246094 C 172.953125 152.941406 173.484375 152.652344 174.019531 152.378906 C 174.558594 152.105469 175.101562 151.851562 175.65625 151.609375 C 176.207031 151.371094 176.765625 151.148438 177.332031 150.945312 C 177.898438 150.738281 178.472656 150.550781 179.050781 150.378906 C 179.628906 150.210938 180.210938 150.058594 180.796875 149.925781 C 181.382812 149.789062 181.976562 149.675781 182.570312 149.574219 C 183.164062 149.476562 183.761719 149.398438 184.359375 149.335938 C 184.960938 149.277344 185.558594 149.234375 186.164062 149.210938 C 186.765625 149.183594 187.367188 149.179688 187.96875 149.191406 C 188.570312 149.203125 189.171875 149.234375 189.773438 149.285156 C 190.371094 149.335938 190.972656 149.402344 191.566406 149.492188 C 192.164062 149.578125 192.757812 149.679688 193.347656 149.804688 C 193.9375 149.925781 194.519531 150.070312 195.101562 150.226562 C 195.683594 150.386719 196.257812 150.5625 196.828125 150.757812 C 197.398438 150.953125 197.964844 151.164062 198.519531 151.390625 C 199.078125 151.621094 199.628906 151.867188 200.167969 152.128906 C 200.710938 152.394531 201.246094 152.671875 201.769531 152.96875 C 202.292969 153.261719 202.808594 153.574219 203.316406 153.902344 C 203.820312 154.230469 204.316406 154.570312 204.800781 154.929688 C 205.285156 155.289062 205.757812 155.660156 206.222656 156.046875 C 206.683594 156.433594 207.132812 156.835938 207.570312 157.25 C 208.007812 157.664062 208.429688 158.089844 208.839844 158.53125 C 209.253906 158.972656 209.648438 159.425781 210.03125 159.890625 C 210.414062 160.355469 210.785156 160.832031 211.136719 161.316406 C 211.492188 161.804688 211.828125 162.304688 212.152344 162.8125 C 212.476562 163.320312 212.785156 163.839844 213.074219 164.367188 C 213.367188 164.894531 213.640625 165.429688 213.898438 165.972656 C 214.15625 166.515625 214.398438 167.070312 214.625 167.628906 C 216.039062 171.148438 216.746094 174.808594 216.738281 178.605469 Z M 216.738281 178.605469 "/><path style=" stroke:none;fill-rule:nonzero;fill:#00ffb2;fill-opacity:1;" d="M 187.320312 208.355469 C 186.730469 208.355469 186.140625 208.335938 185.546875 208.300781 C 184.957031 208.265625 184.371094 208.210938 183.785156 208.140625 C 183.195312 208.070312 182.613281 207.984375 182.03125 207.878906 C 181.449219 207.773438 180.871094 207.648438 180.296875 207.511719 C 179.722656 207.371094 179.152344 207.214844 178.589844 207.039062 C 178.023438 206.867188 177.464844 206.675781 176.910156 206.46875 C 176.359375 206.261719 175.8125 206.039062 175.269531 205.800781 C 174.730469 205.558594 174.199219 205.304688 173.671875 205.03125 C 173.148438 204.761719 172.632812 204.472656 172.125 204.171875 C 171.617188 203.871094 171.117188 203.550781 170.628906 203.21875 C 170.140625 202.886719 169.660156 202.542969 169.191406 202.183594 C 168.722656 201.820312 168.265625 201.445312 167.820312 201.058594 C 167.375 200.671875 166.941406 200.269531 166.519531 199.859375 C 166.097656 199.445312 165.6875 199.019531 165.289062 198.582031 C 164.894531 198.140625 164.511719 197.691406 164.140625 197.230469 C 163.769531 196.769531 163.414062 196.300781 163.074219 195.816406 C 162.730469 195.335938 162.402344 194.84375 162.089844 194.34375 C 161.777344 193.839844 161.480469 193.328125 161.199219 192.808594 C 160.917969 192.292969 160.652344 191.765625 160.402344 191.230469 C 160.148438 190.695312 159.914062 190.152344 159.695312 189.601562 C 159.480469 189.054688 159.277344 188.496094 159.089844 187.9375 C 158.90625 187.375 158.738281 186.808594 158.585938 186.238281 C 158.433594 185.667969 158.300781 185.089844 158.183594 184.511719 C 158.066406 183.933594 157.964844 183.351562 157.882812 182.765625 C 157.800781 182.179688 157.738281 181.59375 157.6875 181.003906 C 157.640625 180.414062 157.613281 179.824219 157.601562 179.234375 C 157.585938 178.644531 157.59375 178.050781 157.617188 177.460938 C 157.636719 176.871094 157.679688 176.28125 157.738281 175.695312 C 157.796875 175.105469 157.871094 174.519531 157.964844 173.9375 C 158.058594 173.351562 158.167969 172.773438 158.292969 172.195312 C 158.421875 171.617188 158.566406 171.046875 158.730469 170.476562 C 158.890625 169.910156 159.070312 169.34375 159.265625 168.789062 C 159.460938 168.230469 159.671875 167.679688 159.898438 167.132812 C 160.128906 166.589844 160.371094 166.050781 160.632812 165.519531 C 160.890625 164.988281 161.167969 164.46875 161.460938 163.953125 C 161.75 163.4375 162.058594 162.933594 162.378906 162.4375 C 162.699219 161.941406 163.035156 161.457031 163.386719 160.980469 C 163.738281 160.503906 164.101562 160.039062 164.480469 159.585938 C 164.859375 159.132812 165.25 158.6875 165.652344 158.257812 C 166.058594 157.828125 166.476562 157.410156 166.90625 157.003906 C 167.335938 156.597656 167.777344 156.203125 168.230469 155.824219 C 168.683594 155.445312 169.144531 155.078125 169.621094 154.726562 C 170.09375 154.375 170.578125 154.039062 171.074219 153.714844 C 171.570312 153.390625 172.074219 153.082031 172.585938 152.789062 C 173.101562 152.496094 173.621094 152.21875 174.152344 151.957031 C 174.679688 151.695312 175.21875 151.449219 175.761719 151.21875 C 176.308594 150.988281 176.859375 150.777344 177.414062 150.578125 C 177.972656 150.382812 178.535156 150.203125 179.101562 150.039062 C 179.671875 149.875 180.242188 149.726562 180.820312 149.597656 C 181.394531 149.46875 181.976562 149.359375 182.558594 149.261719 C 183.144531 149.167969 183.726562 149.089844 184.316406 149.03125 C 184.90625 148.96875 185.492188 148.929688 186.085938 148.902344 C 186.675781 148.878906 187.265625 148.871094 187.855469 148.882812 C 188.445312 148.890625 189.035156 148.921875 189.625 148.964844 C 190.214844 149.011719 190.804688 149.074219 191.386719 149.15625 C 191.972656 149.234375 192.554688 149.332031 193.136719 149.449219 C 193.714844 149.566406 194.292969 149.695312 194.863281 149.847656 C 195.433594 149.996094 196 150.164062 196.5625 150.347656 C 197.125 150.53125 197.679688 150.730469 198.230469 150.945312 C 198.78125 151.164062 199.324219 151.394531 199.859375 151.644531 C 200.394531 151.894531 200.921875 152.160156 201.445312 152.4375 C 201.964844 152.71875 202.476562 153.015625 202.976562 153.324219 C 203.480469 153.636719 203.972656 153.960938 204.457031 154.300781 C 204.941406 154.644531 205.414062 154.996094 205.875 155.367188 C 206.335938 155.734375 206.785156 156.117188 207.226562 156.511719 C 207.664062 156.90625 208.09375 157.316406 208.507812 157.734375 C 208.921875 158.15625 209.324219 158.589844 209.714844 159.035156 C 210.101562 159.480469 210.476562 159.933594 210.839844 160.402344 C 211.203125 160.871094 211.550781 161.347656 211.882812 161.835938 C 212.21875 162.324219 212.535156 162.820312 212.839844 163.328125 C 213.144531 163.835938 213.433594 164.347656 213.703125 164.875 C 213.976562 165.398438 214.234375 165.929688 214.476562 166.46875 C 214.71875 167.007812 214.941406 167.554688 215.152344 168.109375 C 215.359375 168.660156 215.554688 169.21875 215.726562 169.78125 C 215.902344 170.347656 216.0625 170.917969 216.203125 171.492188 C 216.347656 172.0625 216.46875 172.640625 216.578125 173.222656 C 216.683594 173.804688 216.773438 174.386719 216.847656 174.972656 C 216.917969 175.5625 216.972656 176.148438 217.011719 176.738281 C 217.046875 177.328125 217.066406 177.917969 217.070312 178.511719 C 217.074219 179.101562 217.058594 179.691406 217.023438 180.28125 C 216.992188 180.871094 216.941406 181.460938 216.871094 182.046875 C 216.804688 182.632812 216.71875 183.21875 216.613281 183.800781 C 216.511719 184.382812 216.390625 184.960938 216.253906 185.535156 C 216.117188 186.109375 215.960938 186.679688 215.789062 187.246094 C 215.617188 187.8125 215.429688 188.371094 215.226562 188.925781 C 215.019531 189.480469 214.800781 190.027344 214.5625 190.570312 C 214.324219 191.109375 214.070312 191.644531 213.800781 192.171875 C 213.53125 192.695312 213.246094 193.214844 212.949219 193.722656 C 212.648438 194.230469 212.332031 194.730469 212.003906 195.222656 C 211.671875 195.710938 211.328125 196.191406 210.96875 196.660156 C 210.609375 197.132812 210.238281 197.589844 209.851562 198.039062 C 209.464844 198.484375 209.066406 198.921875 208.65625 199.34375 C 208.242188 199.769531 207.820312 200.179688 207.382812 200.578125 C 206.945312 200.976562 206.5 201.363281 206.039062 201.734375 C 205.578125 202.105469 205.109375 202.460938 204.628906 202.804688 C 204.148438 203.148438 203.65625 203.480469 203.15625 203.792969 C 200.785156 205.285156 198.253906 206.421875 195.5625 207.195312 C 192.871094 207.972656 190.121094 208.359375 187.320312 208.355469 Z M 187.320312 149.515625 C 186.292969 149.515625 185.265625 149.570312 184.242188 149.679688 C 183.21875 149.789062 182.203125 149.953125 181.199219 150.171875 C 180.191406 150.390625 179.203125 150.660156 178.222656 150.984375 C 177.246094 151.304688 176.289062 151.679688 175.351562 152.105469 C 174.414062 152.527344 173.503906 153 172.617188 153.523438 C 171.730469 154.042969 170.871094 154.613281 170.046875 155.222656 C 169.21875 155.835938 168.425781 156.492188 167.667969 157.1875 C 166.910156 157.882812 166.191406 158.621094 165.515625 159.390625 C 164.835938 160.164062 164.199219 160.972656 163.605469 161.8125 C 163.011719 162.652344 162.464844 163.523438 161.960938 164.421875 C 161.460938 165.320312 161.007812 166.242188 160.605469 167.1875 C 160.203125 168.136719 159.851562 169.101562 159.550781 170.085938 C 159.25 171.070312 159 172.066406 158.804688 173.078125 C 158.609375 174.085938 158.46875 175.105469 158.382812 176.128906 C 158.296875 177.15625 158.265625 178.183594 158.285156 179.210938 C 158.308594 180.242188 158.386719 181.265625 158.515625 182.285156 C 158.648438 183.304688 158.832031 184.316406 159.070312 185.316406 C 159.308594 186.320312 159.601562 187.304688 159.945312 188.273438 C 160.289062 189.246094 160.679688 190.195312 161.125 191.121094 C 161.570312 192.050781 162.0625 192.953125 162.601562 193.828125 C 163.140625 194.703125 163.726562 195.550781 164.355469 196.363281 C 164.984375 197.179688 165.65625 197.957031 166.367188 198.699219 C 167.082031 199.441406 167.828125 200.144531 168.617188 200.808594 C 169.402344 201.46875 170.222656 202.089844 171.074219 202.664062 C 171.929688 203.242188 172.808594 203.769531 173.71875 204.253906 C 174.628906 204.734375 175.558594 205.167969 176.515625 205.550781 C 177.46875 205.9375 178.441406 206.269531 179.433594 206.546875 C 180.421875 206.828125 181.425781 207.054688 182.4375 207.230469 C 183.453125 207.402344 184.472656 207.523438 185.5 207.585938 C 186.527344 207.652344 187.554688 207.664062 188.582031 207.621094 C 189.609375 207.574219 190.632812 207.476562 191.652344 207.324219 C 192.667969 207.171875 193.675781 206.964844 194.671875 206.707031 C 195.667969 206.449219 196.648438 206.136719 197.609375 205.773438 C 198.570312 205.410156 199.511719 204.996094 200.433594 204.53125 C 201.351562 204.070312 202.242188 203.558594 203.105469 203 C 203.972656 202.441406 204.804688 201.839844 205.605469 201.195312 C 206.40625 200.546875 207.167969 199.859375 207.898438 199.132812 C 208.625 198.40625 209.3125 197.640625 209.957031 196.839844 C 210.605469 196.039062 211.207031 195.207031 211.765625 194.34375 C 212.324219 193.480469 212.832031 192.585938 213.296875 191.667969 C 213.761719 190.75 214.175781 189.808594 214.539062 188.847656 C 214.902344 187.882812 215.210938 186.902344 215.472656 185.910156 C 215.730469 184.914062 215.9375 183.90625 216.089844 182.886719 C 216.242188 181.871094 216.339844 180.847656 216.382812 179.820312 C 216.429688 178.792969 216.417969 177.765625 216.351562 176.738281 C 216.285156 175.710938 216.167969 174.691406 215.992188 173.675781 C 215.820312 172.660156 215.59375 171.660156 215.3125 170.667969 C 215.03125 169.679688 214.703125 168.707031 214.316406 167.75 C 213.78125 166.410156 213.152344 165.113281 212.421875 163.867188 C 211.691406 162.621094 210.875 161.433594 209.96875 160.3125 C 209.0625 159.1875 208.078125 158.136719 207.015625 157.15625 C 205.953125 156.179688 204.820312 155.285156 203.625 154.480469 C 202.429688 153.671875 201.179688 152.957031 199.875 152.332031 C 198.570312 151.710938 197.226562 151.191406 195.847656 150.769531 C 194.464844 150.351562 193.058594 150.035156 191.628906 149.824219 C 190.199219 149.613281 188.765625 149.511719 187.320312 149.515625 Z M 187.320312 149.515625 "/></g></svg>